# WaveFront *.obj file (generated by Cinema 4D)

mtllib ./Office_Floor_2M.mtl

v -100.000000 -0.000000 100.000000
v 100.000000 -0.000000 100.000000
v -100.000000 0.000000 -100.000000
v 100.000000 0.000000 -100.000000
v -100.000000 -5.000000 100.000000
v 100.000000 -5.000000 100.000000
v -100.000000 -5.000000 -100.000000
v 100.000000 -5.000000 -100.000000
# 8 vertices

vn 0.000000 1.000000 0.000000
vn 0.000000 0.000000 1.000000
vn 0.000000 0.000000 1.000000
vn 1.000000 0.000000 0.000000
vn 0.000000 0.000000 -1.000000
vn 0.000000 0.000000 -1.000000
vn -1.000000 0.000000 0.000000
vn 0.000000 -1.000000 0.000000
# 8 normals

vt 0.004039 0.002429 0.000000
vt 0.004039 0.247193 0.000000
vt 0.248802 0.247193 0.000000
vt 0.000000 1.000000 0.000000
vt 0.248802 0.002429 0.000000
# 5 texture coordinates

o Office_Floor_2M
usemtl 06 - Default
f 4/3/1 3/2/1 1/1/1
f 1/1/1 2/5/1 4/3/1
f 2/5/2 1/1/2 5/1/2
f 5/1/2 6/5/3 2/5/2
f 4/3/4 2/5/4 6/5/4
f 6/5/4 8/3/4 4/3/4
f 3/2/5 4/3/6 8/3/5
f 8/3/5 7/2/5 3/2/5
f 1/1/7 3/2/7 7/2/7
f 7/2/7 5/1/7 1/1/7
f 7/2/8 8/3/8 6/5/8
f 6/5/8 5/1/8 7/2/8

